Coordinates
nRows=14
nColumns=24

# SIMM Motion File Header:
name Coordinates
datacolumns 24
datarows 14
otherdata 1
range 0.91632999999999998000 0.92932999999999999000

Units are S.I. units (second, meters, Newtons, ...)
Angles are in degrees.

endheader
time	pelvis_tx	pelvis_ty	pelvis_tz	pelvis_tilt	pelvis_list	pelvis_rotation	hip_flexion_r	hip_adduction_r	hip_rotation_r	knee_angle_r	ankle_angle_r	subtalar_angle_r	mtp_angle_r	hip_flexion_l	hip_adduction_l	hip_rotation_l	knee_angle_l	ankle_angle_l	subtalar_angle_l	mtp_angle_l	lumbar_extension	lumbar_bending	lumbar_rotation
      0.91632999999999998000	     -1.13489584739927270000	      0.66090942557064436000	      0.27333041364489480000	      6.85535220854086270000	      2.75992006689381950000	     -2.86190570078387820000	    -21.09463713299638200000	     -0.95670718464325721000	    -13.50536032876254200000	    -18.57643724770743900000	     19.66698358592407200000	     -0.00000000000038994059	      0.00000000000055798931	     16.94413208547476300000	      5.95685543280031470000	     -1.77466961816353770000	     -8.46266393936443430000	    -12.39919792671471700000	      0.00000000000001094212	      0.00000000000000149481	    -27.20614419491623100000	     -5.44967627481110380000	      6.42684855105921220000
      0.91732999999999998000	     -1.13408502290669720000	      0.66099000612492942000	      0.27323207612606859000	      6.81808277790318320000	      2.78364576196862590000	     -2.83464127126030970000	    -21.08702469558644000000	     -0.99003896087765442000	    -13.50350134328008000000	    -18.63195457447250500000	     19.57716437536721800000	     -0.00000000000039148883	      0.00000000000056007190	     16.95825120064556700000	      5.99815923151673140000	     -1.76009219590874500000	     -8.53675407816508170000	    -12.41037952341326000000	      0.00000000000001088104	      0.00000000000000153097	    -27.15797916089307400000	     -5.46207558546774050000	      6.39345364365035800000
      0.91832999999999998000	     -1.13327360507384190000	      0.66107241207058298000	      0.27313415117340234000	      6.78077682323968120000	      2.80708306750535910000	     -2.80781271367107670000	    -21.07867589565210400000	     -1.02350994085185710000	    -13.50146141856308000000	    -18.68833973149081000000	     19.48524775808348500000	     -0.00000000000039303051	      0.00000000000056212937	     16.97168165809009500000	      6.03868611900806500000	     -1.74786230490784610000	     -8.61009059221046690000	    -12.41871726123818400000	      0.00000000000001083714	      0.00000000000000155747	    -27.10937549085119600000	     -5.47439790617877000000	      6.36120971575599190000
      0.91932999999999998000	     -1.13246160729928640000	      0.66115662310922718000	      0.27303667511931251000	      6.74344195873979490000	      2.83022722604541110000	     -2.78144214635812800000	    -21.06958401844593000000	     -1.05712853193049310000	    -13.49925099258029300000	    -18.74560466552668800000	     19.39120145498141000000	     -0.00000000000039454901	      0.00000000000056410271	     16.98439569158277300000	      6.07842871453841930000	     -1.73799142592867390000	     -8.68262775828316790000	    -12.42424883796225100000	      0.00000000000001076484	      0.00000000000000159034	    -27.06034271650320400000	     -5.48665349030968310000	      6.33013689192041970000
      0.92032999999999998000	     -1.13164904428916360000	      0.66124261985849508000	      0.27293968370466448000	      6.70608579570490800000	      2.85307392848324780000	     -2.75555097571784820000	    -21.05974227412184900000	     -1.09090341163390740000	    -13.49688102883455100000	    -18.80376137287941100000	     19.29499334871708500000	     -0.00000000000039608100	      0.00000000000056610169	     16.99636601134064800000	      6.11738078015114970000	     -1.73048773590867390000	     -8.75432003331523490000	    -12.42701451373687000000	      0.00000000000001069874	      0.00000000000000163197	    -27.01089083736389900000	     -5.49885258458380390000	      6.30025374128761670000
      0.92132999999999998000	     -1.13083593213407420000	      0.66133038378741704000	      0.27284321206513656000	      6.66871593276600990000	      2.87561931164290870000	     -2.73015987787888650000	    -21.04914379877215000000	     -1.12484351395576510000	    -13.49436300541977100000	    -18.86282190361407600000	     19.19659156064531700000	     -0.00000000000039757531	      0.00000000000056800553	     17.00756583854304100000	      6.15553721426892060000	     -1.72535608828816070000	     -8.82512212767022850000	    -12.42705701725728900000	      0.00000000000001063714	      0.00000000000000167355	    -26.96103030856662400000	     -5.51100541453947820000	      6.27157726178029230000
      0.92232999999999998000	     -1.13002228838633220000	      0.66141989715269189000	      0.27274729471672021000	      6.63133994614722420000	      2.89785995612251800000	     -2.70528878030110190000	    -21.03778165541501000000	     -1.15895801593608550000	    -13.49170890432448300000	    -18.92279836582037000000	     19.09596452720253600000	     -0.00000000000039902863	      0.00000000000056981039	     17.01796893989441600000	      6.19289404570111920000	     -1.72259799310650740000	     -8.89498907776364510000	    -12.42442145295291500000	      0.00000000000001058095	      0.00000000000000171014	    -26.91077202871934700000	     -5.52312217021814790000	      6.24412286407716000000
      0.92332999999999998000	     -1.12920813213735330000	      0.66151114293575564000	      0.27265196554052784000	      6.59396537993769360000	      2.91979288414080470000	     -2.68095684337499350000	    -21.02564883490605800000	     -1.19325632422180020000	    -13.48893120073876000000	    -18.98370292985425300000	     18.99308107627782500000	     -0.00000000000040050927	      0.00000000000057165861	     17.02754966226705200000	      6.22944842764194370000	     -1.72221159709670220000	     -8.96387631865625070000	    -12.41915520818243100000	      0.00000000000001053604	      0.00000000000000174258	    -26.86012732771548200000	     -5.53521299184569580000	      6.21790435558766410000
      0.92432999999999998000	     -1.12839348409515130000	      0.66160410478065512000	      0.27255725776687267000	      6.55659973637134910000	      2.94141555738325430000	     -2.65718244202219810000	    -21.01273825677441900000	     -1.22774806161179680000	    -13.48604285236221800000	    -19.04554783256224200000	     18.88791050357768200000	     -0.00000000000040199270	      0.00000000000057353651	     17.03628296742302000000	      6.26519863165446630000	     -1.72419166377978540000	     -9.03173975662616260000	    -12.41130786042781000000	      0.00000000000001047056	      0.00000000000000178928	    -26.80910795449896600000	     -5.54728795550440700000	      6.19293392442627690000
      0.92532999999999999000	     -1.12757836666117160000	      0.66169876693208596000	      0.27246320395894780000	      6.51925046614123720000	      2.96272587393106380000	     -2.63398314766036100000	    -20.99904277000288400000	     -1.26244305283553570000	    -13.48305728839194000000	    -19.10834538179211300000	     18.78042264383098100000	     -0.00000000000040346479	      0.00000000000057541437	     17.04414446658509500000	      6.30014404101259990000	     -1.72852955088469980000	     -9.09853584382731740000	    -12.40093103536547800000	      0.00000000000001040156	      0.00000000000000181070	    -26.75772606463633000000	     -5.55935705802733260000	      6.16922212438563380000
      0.92632999999999999000	     -1.12676280400417680000	      0.66179511417440384000	      0.27236983599002984000	      6.48192495893433660000	      2.98372217009712810000	     -2.61137570849673660000	    -20.98455515362007200000	     -1.29735131501967290000	    -13.47998840501508300000	    -19.17210796062718000000	     18.67058795036785300000	     -0.00000000000040493245	      0.00000000000057727913	     17.05111045804540000000	      6.33428515276525420000	     -1.73521319973218110000	     -9.16422167113975840000	    -12.38807824651574000000	      0.00000000000001035326	      0.00000000000000185266	    -26.70599420880480000000	     -5.57143020698806700000	      6.14677785862537270000
      0.92732999999999999000	     -1.12594682210232700000	      0.66189313174883957000	      0.27227718501815018000	      6.44463053441019880000	      3.00440321816718380000	     -2.58937603709899690000	    -20.96926811756492300000	     -1.33248304417228880000	    -13.47685055308687800000	    -19.23684803094804600000	     18.55837759427384600000	     -0.00000000000040636964	      0.00000000000057905838	     17.05715795831157400000	      6.36762356530723480000	     -1.74422715691058230000	     -9.22875503835791730000	    -12.37280487976337700000	      0.00000000000001031203	      0.00000000000000188641	    -26.65392532001710900000	     -5.58351721282131040000	      6.12560837942622440000
      0.92832999999999999000	     -1.12513044874014260000	      0.66199280523551407000	      0.27218528145173415000	      6.40737443351617130000	      3.02476821220898410000	     -2.56799920712482250000	    -20.95317430354264200000	     -1.36784859036451540000	    -13.47365851165472600000	    -19.30257813791652300000	     18.44376354878035700000	     -0.00000000000040779546	      0.00000000000058081493	     17.06226472430180900000	      6.40016194246108050000	     -1.75555259934266370000	     -9.29209449598134900000	    -12.35516811117936000000	      0.00000000000001026542	      0.00000000000000192833	    -26.60153269809579900000	     -5.59562777422321480000	      6.10571930656527240000
      0.92932999999999999000	     -1.12431371349724760000	      0.66209412043186933000	      0.27209415490216798000	      6.37016380996353070000	      3.04481675836890590000	     -2.54725944759211580000	    -20.93626628543543300000	     -1.40345843706814380000	    -13.47042746792403500000	    -19.36931091445601500000	     18.32671867456530600000	     -0.00000000000040923216	      0.00000000000058259678	     17.06640927906817900000	      6.43190398662530070000	     -1.76916736294170770000	     -9.35419940508257850000	    -12.33522677788537100000	      0.00000000000001022846	      0.00000000000000199861	    -26.54882999499337600000	     -5.60777146699438320000	      6.08711464214177140000
